
<svg width="24" height="24" viewBox="0 0 24 24" fill="none" xmlns="http://www.w3.org/2000/svg">
<path fill-rule="evenodd" clip-rule="evenodd" d="M8 2.66667C8 1.95942 8.28095 1.28115 8.78105 0.781048C9.28115 0.280951 9.95942 0 10.6667 0H13.3333C14.0406 0 14.7189 0.280951 15.219 0.781048C15.719 1.28115 16 1.95942 16 2.66667V8H21.3333C22.0406 8 22.7189 8.28095 23.219 8.78105C23.719 9.28115 24 9.95942 24 10.6667V13.3333C24 14.0406 23.719 14.7189 23.219 15.219C22.7189 15.719 22.0406 16 21.3333 16H16V21.3333C16 22.0406 15.719 22.7189 15.219 23.219C14.7189 23.719 14.0406 24 13.3333 24H10.6667C9.95942 24 9.28115 23.719 8.78105 23.219C8.28095 22.7189 8 22.0406 8 21.3333V16H2.66667C1.95942 16 1.28115 15.719 0.781048 15.219C0.280951 14.7189 0 14.0406 0 13.3333V10.6667C0 9.95942 0.280951 9.28115 0.781048 8.78105C1.28115 8.28095 1.95942 8 2.66667 8H8V2.66667ZM13.3333 2.66667H10.6667V9.33333C10.6667 9.68696 10.5262 10.0261 10.2761 10.2761C10.0261 10.5262 9.68696 10.6667 9.33333 10.6667H2.66667V13.3333H9.33333C9.68696 13.3333 10.0261 13.4738 10.2761 13.7239C10.5262 13.9739 10.6667 14.313 10.6667 14.6667V21.3333H13.3333V14.6667C13.3333 14.313 13.4738 13.9739 13.7239 13.7239C13.9739 13.4738 14.313 13.3333 14.6667 13.3333H21.3333V10.6667H14.6667C14.313 10.6667 13.9739 10.5262 13.7239 10.2761C13.4738 10.0261 13.3333 9.68696 13.3333 9.33333V2.66667Z" fill="url(#paint0_linear_788_291)"/>
<defs>
<linearGradient id="paint0_linear_788_291" x1="13.2" y1="-3.77778" x2="14.554" y2="38.7377" gradientUnits="userSpaceOnUse">
<stop offset="1" stop-color="#38B6FF"/>
</linearGradient>
</defs>
</svg>
