<svg width="22" height="23" viewBox="0 0 22 23" fill="none" xmlns="http://www.w3.org/2000/svg">
<path fill-rule="evenodd" clip-rule="evenodd" d="M10.573 0.4729C16.4028 0.4729 21.1449 5.1332 21.1449 10.8626C21.1449 13.5656 20.0894 16.031 18.362 17.8813L21.7609 21.2146C22.079 21.5272 22.0801 22.0329 21.762 22.3455C21.6035 22.5034 21.3939 22.5813 21.1855 22.5813C20.9781 22.5813 20.7697 22.5034 20.6101 22.3476L17.1702 18.9765C15.3607 20.4006 13.0663 21.2533 10.573 21.2533C4.74314 21.2533 0 16.5919 0 10.8626C0 5.1332 4.74314 0.4729 10.573 0.4729ZM10.573 2.07328C5.64096 2.07328 1.62845 6.01554 1.62845 10.8626C1.62845 15.7096 5.64096 19.6529 10.573 19.6529C15.5039 19.6529 19.5165 15.7096 19.5165 10.8626C19.5165 6.01554 15.5039 2.07328 10.573 2.07328Z" fill="#38B6FF"/>
</svg>