<?xml version="1.0" standalone="no"?>
<!DOCTYPE svg PUBLIC "-//W3C//DTD SVG 20010904//EN"
 "http://www.w3.org/TR/2001/REC-SVG-20010904/DTD/svg10.dtd">
<svg version="1.0" xmlns="http://www.w3.org/2000/svg"
 width="24.000000pt" height="24.000000pt" viewBox="0 0 24.000000 24.000000"
 preserveAspectRatio="xMidYMid meet">

<g transform="translate(0.000000,24.000000) scale(0.100000,-0.100000)"
fill="#000000" stroke="none">
<path d="M80 105 c0 -29 8 -32 25 -8 15 20 43 11 54 -18 5 -16 10 -19 16 -10
4 7 2 24 -6 37 -10 19 -20 24 -51 24 -34 0 -38 -3 -38 -25z"/>
<path d="M125 42 c-55 -4 -70 -22 -20 -22 36 0 77 14 65 22 -3 2 -23 2 -45 0z"/>
</g>
</svg>
