<?xml version="1.0" encoding="UTF-8"?>
<svg version="1.1" xmlns="http://www.w3.org/2000/svg" width="24" height="24">
<path d="M0 0 C3.12578143 1.6720747 5.39281175 3.7856235 7 7 C7.51512617 11.09157355 7.94367269 15.23589546 5.953125 18.95703125 C4.18601378 21.09315687 2.49101659 22.75449171 0 24 C-2.88370333 24.07194869 -5.74239664 24.09291708 -8.625 24.0625 C-9.42679688 24.05798828 -10.22859375 24.05347656 -11.0546875 24.04882812 C-13.03649006 24.03703168 -15.01825433 24.01909605 -17 24 C-17.1358035 21.28996573 -17.23444624 18.58681059 -17.3125 15.875 C-17.35439453 15.11445313 -17.39628906 14.35390625 -17.43945312 13.5703125 C-17.52924304 9.4040605 -17.28883246 6.80510776 -14.60546875 3.5078125 C-10.17428809 -0.75728193 -5.97022608 -0.84113446 0 0 Z M-14 8 C-15.72120626 12.36038919 -14.44386419 15.66840744 -13 20 C-7.06505399 22.03843543 -7.06505399 22.03843543 -1.125 20.8125 C2.18583531 19.19948056 2.18583531 19.19948056 4 16 C4.5493667 11.13418066 4.73490373 9.1023556 2 5 C-1.33228304 2.77847797 -3.14088392 2.2519961 -7.06640625 2.51171875 C-10.45966968 3.36860346 -11.98413808 5.25109739 -14 8 Z " fill="#000000" transform="translate(17,0)"/>
<path d="M0 0 C0.99 0.33 1.98 0.66 3 1 C2.67 1.99 2.34 2.98 2 4 C1.01 3.67 0.02 3.34 -1 3 C-0.67 2.01 -0.34 1.02 0 0 Z " fill="#000000" transform="translate(11,10)"/>
<path d="M0 0 C0.66 0 1.32 0 2 0 C1.67 1.32 1.34 2.64 1 4 C0.34 3.67 -0.32 3.34 -1 3 C-0.67 2.01 -0.34 1.02 0 0 Z " fill="#000000" transform="translate(16,10)"/>
<path d="M0 0 C0.99 0.33 1.98 0.66 3 1 C2.67 1.99 2.34 2.98 2 4 C1.34 3.67 0.68 3.34 0 3 C0 2.01 0 1.02 0 0 Z " fill="#000000" transform="translate(6,10)"/>
</svg>
